<?xml version="1.0" standalone="no"?>
<!DOCTYPE svg PUBLIC "-//W3C//DTD SVG 20010904//EN"
 "http://www.w3.org/TR/2001/REC-SVG-20010904/DTD/svg10.dtd">
<svg version="1.0" xmlns="http://www.w3.org/2000/svg"
 width="640.000000pt" height="335.000000pt" viewBox="0 0 640.000000 335.000000"
 preserveAspectRatio="xMidYMid meet">
<metadata>
Created by potrace 1.10, written by Peter Selinger 2001-2011
</metadata>
<g transform="translate(0.000000,335.000000) scale(0.050000,-0.050000)"
fill="#000000" stroke="none">
<path d="M0 4340 l0 -2360 4500 0 4500 0 0 2360 0 2360 -4500 0 -4500 0 0
-2360z m4930 1498 c176 -116 385 -251 465 -300 l145 -88 0 -196 0 -195 -65 33
c-102 53 -463 280 -720 454 l-235 159 -285 -191 c-299 -200 -713 -454 -739
-454 -9 0 -16 85 -16 188 l0 188 265 166 c310 193 731 476 747 502 6 10 36 2
65 -18 30 -20 198 -131 373 -248z m-27 -803 c203 -135 434 -284 513 -332 l144
-87 0 -145 c0 -231 -9 -252 -137 -331 -580 -359 -1250 -358 -1811 2 l-132 84
0 195 0 194 275 171 c151 94 379 243 505 331 127 88 240 160 252 161 12 1 188
-108 391 -243z m-2083 -1665 l0 -270 -80 0 -80 0 0 270 0 270 80 0 80 0 0
-270z m239 212 c47 -66 52 -125 17 -182 -20 -31 -20 -44 0 -64 38 -38 28 -139
-19 -190 -66 -70 -217 -67 -217 4 0 40 10 50 50 50 42 0 50 9 50 60 0 51 -8
60 -50 60 -40 0 -50 10 -50 50 0 40 10 50 50 50 42 0 50 9 50 60 0 51 -8 60
-50 60 -40 0 -50 10 -50 50 0 80 160 74 219 -8z m241 -212 l0 -270 -80 0 -80
0 0 270 0 270 80 0 80 0 0 -270z m236 209 c102 -128 31 -281 -141 -306 -69
-10 -75 -7 -75 38 0 39 10 49 50 49 46 0 50 7 50 90 0 83 -4 90 -50 90 -40 0
-50 10 -50 50 0 79 151 71 216 -11z m455 -209 l83 -260 -71 -6 c-48 -5 -75 3
-87 25 -10 17 -44 31 -78 31 -75 0 -79 86 -5 96 41 6 41 9 15 98 -30 99 -56
142 -46 76 3 -22 -10 -105 -30 -185 l-36 -145 -155 0 -155 0 -31 78 -30 78 69
8 c63 8 72 2 109 -70 49 -97 45 -103 118 148 85 288 79 279 111 198 21 -52 26
-56 18 -17 -5 29 -16 68 -23 87 -10 28 0 32 65 26 l77 -6 82 -260z m497 221
c52 -80 42 -111 -38 -111 -49 0 -70 9 -70 30 0 20 -20 30 -60 30 l-60 0 0
-170 0 -170 60 0 c51 0 60 -8 60 -50 0 -70 -162 -74 -234 -7 -67 64 -69 380
-3 451 67 70 298 68 345 -3z m234 -16 c2 -36 4 -132 5 -215 l3 -150 65 -6 c54
-5 65 -15 65 -55 0 -71 -183 -73 -241 -4 -59 71 -56 384 4 449 62 65 97 58 99
-19z m246 16 c52 -79 41 -111 -36 -111 -42 0 -72 11 -79 30 -7 17 -35 30 -62
30 -41 0 -51 10 -51 50 0 75 179 75 228 1z m312 -11 c0 -33 -9 -60 -20 -60
-12 0 -20 -63 -20 -149 0 -82 9 -154 20 -161 76 -47 18 -110 -100 -110 -115 0
-186 75 -98 104 35 12 40 289 6 318 -77 63 -34 118 92 118 120 0 120 0 120
-60z m344 -205 l130 -265 -62 -11 c-90 -16 -127 37 -301 431 l-49 110 76 0 75
0 131 -265z m136 35 c0 -126 -4 -230 -10 -230 -39 0 -110 211 -110 329 l0 131
60 0 60 0 0 -230z m200 12 l0 -218 70 -8 c75 -9 107 65 40 91 -83 32 -33 113
70 113 l100 0 0 -150 0 -150 -172 0 c-229 0 -246 19 -247 269 -1 156 4 184 42
225 84 88 97 65 97 -172z m241 173 c61 -73 50 -115 -29 -115 -42 0 -72 11 -79
30 -7 17 -35 30 -62 30 -41 0 -51 10 -51 50 0 71 163 75 221 5z m-722 -390 l1
-105 -70 0 -70 0 1 235 1 235 68 -130 c51 -98 68 -156 69 -235z m-959 45 l0
-150 -60 0 c-58 0 -60 4 -60 88 0 71 -8 89 -40 98 -96 25 -50 114 60 114 l100
0 0 -150z m480 0 c0 -82 -7 -150 -15 -150 -8 0 -35 -6 -60 -13 -39 -10 -45 -4
-45 46 -1 87 -22 147 -52 147 -18 0 -28 22 -28 60 0 59 2 60 100 60 l100 0 0
-150z m-1680 -470 l0 -280 -70 0 -70 0 0 280 0 280 70 0 70 0 0 -280z m224
226 c111 -107 68 -291 -74 -311 l-60 -9 65 -3 c61 -3 125 -88 125 -167 0 -68
-151 -2 -181 80 -17 48 -40 86 -50 85 -52 -3 -16 89 36 95 88 10 84 164 -5
164 -53 0 -60 7 -60 60 0 84 119 87 204 6z m336 -6 c0 -33 -9 -60 -20 -60 -12
0 -20 -67 -20 -160 0 -93 8 -160 20 -160 11 0 20 -27 20 -60 0 -60 0 -60 -120
-60 -120 0 -120 0 -120 60 0 33 9 60 20 60 12 0 20 63 20 149 0 82 -9 154 -20
161 -22 14 -27 96 -7 117 8 7 62 13 120 13 106 0 107 -1 107 -60z m200 -170
l0 -230 60 0 c51 0 60 -8 60 -50 0 -69 -143 -73 -214 -7 -66 62 -69 369 -5
459 81 113 99 81 99 -172z m241 169 c23 -33 38 -74 31 -90 -15 -39 -130 -38
-145 1 -6 17 -33 30 -59 30 -47 0 -70 71 -35 107 41 40 165 11 208 -48z m239
-219 l0 -280 -70 0 -70 0 0 280 0 280 70 0 70 0 0 -280z m280 0 l0 -280 -80 0
-80 0 0 110 c0 104 -3 110 -50 110 -42 0 -50 9 -50 60 0 51 8 60 50 60 46 0
50 7 50 97 0 114 7 123 93 123 l67 0 0 -280z m410 210 c0 -51 -9 -61 -55 -66
l-55 -7 0 -208 0 -209 -80 0 -80 0 0 210 0 210 -60 0 c-53 0 -60 7 -60 57 0
81 9 85 209 79 l181 -6 0 -60z m170 -30 l0 -100 96 0 c162 0 240 -166 143
-302 -65 -90 -99 -76 -99 42 l0 100 -99 0 c-165 0 -240 162 -137 301 66 89 96
77 96 -41z m236 37 c22 -35 36 -76 30 -90 -15 -38 -126 -35 -126 3 0 20 -20
30 -60 30 -53 0 -60 7 -60 60 0 93 157 91 216 -3z m-1296 -347 l0 -150 -70 0
-70 0 0 100 c0 76 -7 100 -30 100 -19 0 -30 19 -30 50 0 47 7 50 100 50 l100
0 0 -150z m1067 -20 c7 -16 35 -30 62 -30 41 0 51 -10 51 -50 0 -81 -177 -75
-226 8 -19 32 -34 68 -34 80 0 34 134 27 147 -8z"/>
<path d="M4080 4590 c-236 -158 -430 -299 -430 -314 0 -48 143 -42 259 11 105
48 111 48 254 21 189 -36 503 -36 709 1 160 28 164 27 259 -20 116 -59 269
-65 269 -9 0 13 -868 602 -884 599 -3 -1 -199 -131 -436 -289z"/>
</g>
</svg>
