<?xml version="1.0" standalone="no"?>
<!DOCTYPE svg PUBLIC "-//W3C//DTD SVG 20010904//EN"
 "http://www.w3.org/TR/2001/REC-SVG-20010904/DTD/svg10.dtd">
<svg version="1.0" xmlns="http://www.w3.org/2000/svg"
 width="1920.000000pt" height="1005.000000pt" viewBox="0 0 1920.000000 1005.000000"
 preserveAspectRatio="xMidYMid meet">
<metadata>
Created by potrace 1.10, written by Peter Selinger 2001-2011
</metadata>
<g transform="translate(0.000000,1005.000000) scale(0.100000,-0.100000)"
fill="#000000" stroke="none">
<path d="M0 6510 l0 -3540 6740 0 6740 0 0 3540 0 3540 -6740 0 -6740 0 0
-3540z m6803 2630 c27 -21 47 -36 217 -152 52 -36 133 -91 180 -124 47 -32
108 -73 135 -91 28 -17 70 -46 95 -63 25 -17 74 -49 110 -71 36 -23 76 -49 90
-60 14 -10 38 -26 55 -35 16 -9 74 -46 128 -81 55 -35 106 -67 115 -70 10 -4
33 -18 52 -32 19 -14 51 -35 70 -45 19 -11 65 -39 102 -63 37 -24 70 -43 73
-43 3 0 23 -11 45 -25 l40 -25 0 -290 c0 -236 -3 -290 -13 -290 -15 0 -165 82
-213 117 -17 12 -42 27 -55 33 -13 6 -36 18 -50 28 -14 9 -73 45 -130 80 -130
79 -193 120 -389 247 -85 55 -169 110 -187 120 -17 11 -77 52 -133 90 -56 39
-132 90 -169 115 -37 25 -92 64 -123 88 -32 23 -67 42 -80 41 -13 0 -43 -16
-68 -35 -44 -33 -138 -98 -172 -119 -9 -5 -50 -33 -90 -61 -150 -105 -208
-144 -213 -144 -2 0 -39 -24 -82 -52 -124 -84 -409 -265 -463 -294 -19 -10
-51 -30 -70 -44 -19 -14 -55 -36 -80 -49 -25 -14 -70 -40 -100 -60 -30 -19
-75 -46 -100 -59 -25 -13 -56 -30 -69 -37 -14 -8 -29 -12 -33 -9 -10 6 -10
565 0 580 4 6 34 26 67 45 77 44 72 41 215 129 67 41 141 86 165 100 24 14 51
32 62 41 10 9 39 28 65 43 26 15 77 47 113 71 36 25 67 45 69 45 7 0 196 125
336 222 41 29 120 82 175 120 149 101 228 158 245 174 19 19 33 18 63 -6z m69
-1282 c50 -35 124 -85 163 -113 91 -63 364 -247 387 -260 9 -5 41 -26 70 -46
29 -19 86 -56 126 -82 40 -26 103 -66 140 -91 37 -24 107 -68 156 -98 49 -29
103 -61 120 -72 17 -10 52 -30 77 -45 116 -66 191 -115 199 -132 12 -21 12
-455 1 -543 -5 -41 -13 -63 -25 -70 -10 -6 -60 -38 -112 -71 -51 -33 -121 -78
-155 -99 -34 -21 -94 -55 -133 -74 -39 -19 -98 -48 -131 -65 -32 -16 -71 -33
-85 -38 -14 -4 -56 -19 -95 -33 -38 -14 -79 -26 -90 -26 -11 0 -29 -6 -40 -13
-42 -28 -318 -74 -516 -86 -167 -10 -428 1 -564 25 -130 22 -236 45 -270 59
-16 7 -77 28 -135 46 -123 38 -359 149 -445 208 -33 22 -64 41 -69 41 -4 0
-33 18 -65 41 -31 23 -78 55 -106 73 l-50 31 -3 296 c-3 332 -9 303 78 351 25
14 70 40 100 59 31 19 64 39 75 46 34 20 245 151 341 211 51 31 108 69 127 85
20 15 40 27 45 27 5 0 37 20 71 45 34 25 63 45 66 45 2 0 39 24 80 53 42 28
84 57 93 62 16 10 40 26 179 121 37 25 79 56 93 67 14 12 37 28 51 35 14 8 48
31 75 52 27 21 57 39 67 39 10 1 59 -27 109 -61z m-2664 -2413 c17 -6 18 -785
0 -803 -16 -16 -204 -17 -214 -1 -7 12 -12 787 -4 799 3 4 14 9 24 11 24 5
176 0 194 -6z m725 -398 c-1 -218 -5 -401 -8 -407 -9 -15 -200 -13 -213 3 -7
8 -10 149 -9 407 l2 395 90 5 c50 3 101 2 115 -1 l25 -5 -2 -397z m352 320
l65 -78 0 -121 c0 -115 -1 -123 -26 -155 -59 -78 -62 -79 -174 -96 -57 -8
-106 -20 -108 -26 -2 -6 -19 -11 -38 -11 -39 0 -47 17 -42 96 l3 49 75 5 75 5
0 125 0 125 -65 3 c-35 2 -70 8 -77 14 -19 15 -18 134 1 145 8 4 66 6 130 3
l116 -5 65 -78z m566 72 c5 -8 12 -25 15 -39 3 -14 18 -63 33 -110 15 -47 36
-112 45 -145 10 -33 24 -76 31 -95 8 -19 28 -82 46 -140 17 -58 43 -139 56
-180 13 -41 21 -80 19 -87 -4 -9 -33 -13 -105 -13 -106 0 -108 1 -126 55 -10
30 -11 30 -90 33 -126 3 -127 4 -119 60 4 26 13 59 21 75 11 23 20 27 56 27
68 0 71 6 42 94 -14 42 -25 81 -25 87 0 6 -6 25 -13 42 -24 57 -39 101 -48
147 -5 24 -14 49 -19 54 -6 6 -10 19 -10 31 0 11 -7 33 -15 49 -21 41 -19 64
8 70 45 9 189 -1 198 -15z m507 5 c18 -13 26 -13 38 -3 16 13 198 23 246 13
20 -4 43 -27 83 -82 49 -67 55 -82 53 -117 l-3 -40 -105 0 -104 0 -9 38 -9 37
-60 0 c-86 0 -98 9 -98 75 0 30 -4 55 -10 55 -10 0 -19 -557 -9 -600 5 -23 10
-25 75 -28 116 -4 114 -3 114 -75 0 -36 -5 -68 -12 -75 -8 -8 -55 -12 -144
-12 l-132 0 -66 78 -66 77 0 258 0 259 63 73 c72 85 109 101 155 69z m711 7
c12 -8 14 -62 13 -321 -2 -223 1 -317 9 -327 9 -9 34 -13 89 -12 43 1 83 -2
89 -5 6 -4 11 -37 11 -76 0 -53 -4 -69 -16 -74 -9 -3 -74 -6 -145 -6 -146 0
-129 -7 -216 95 l-43 50 -2 90 c-1 50 0 168 1 264 l4 175 59 72 c33 40 67 75
76 77 29 8 57 7 71 -2z m303 1 c22 -9 116 -137 124 -169 4 -12 3 -34 0 -48 -6
-25 -8 -25 -111 -25 l-105 0 -6 28 c-3 15 -7 33 -10 40 -2 8 -24 12 -64 12
-91 0 -100 8 -100 86 0 58 2 66 23 74 26 10 224 12 249 2z m526 2 c22 -6 23
-10 20 -92 -3 -82 -4 -86 -27 -92 -16 -3 -27 -15 -30 -30 -4 -14 -4 -117 -1
-230 l5 -204 25 -6 c24 -6 25 -9 25 -85 l0 -80 -164 -3 c-112 -2 -168 1 -177
9 -9 8 -14 33 -14 75 0 58 2 65 28 81 15 10 29 21 32 24 3 4 5 103 5 220 l0
212 -30 17 c-29 16 -30 20 -33 91 -2 61 0 76 14 86 19 14 277 19 322 7z m337
-7 c1 -1 49 -99 107 -217 58 -118 109 -225 113 -237 3 -13 11 -23 16 -23 5 0
9 -9 9 -19 0 -11 7 -26 15 -35 8 -8 15 -19 15 -25 0 -5 26 -62 59 -125 41 -82
55 -118 47 -125 -9 -8 -134 -15 -202 -12 -21 1 -23 4 -145 254 -23 48 -46 90
-51 93 -4 3 -8 13 -8 23 0 10 -7 24 -15 31 -8 7 -15 21 -15 31 0 9 -7 24 -15
33 -8 8 -15 19 -15 24 0 9 -31 80 -49 112 -19 34 -101 206 -101 212 0 4 12 8
28 10 26 3 206 -1 207 -5z m-3675 -63 c75 -90 79 -100 80 -174 0 -56 -4 -71
-30 -110 -16 -25 -30 -51 -30 -59 0 -8 14 -36 31 -63 29 -45 31 -53 28 -121
-4 -69 -6 -75 -49 -127 -87 -104 -78 -100 -211 -100 -92 0 -120 3 -126 14 -4
8 -6 43 -3 78 l5 63 70 5 70 5 0 85 0 85 -70 3 c-38 2 -72 7 -75 12 -3 4 -3
39 0 77 l5 68 70 5 70 5 3 78 c2 57 0 77 -10 78 -7 1 -38 0 -69 -1 -31 -1 -59
2 -62 7 -9 14 -19 132 -12 143 4 6 59 10 133 10 l127 0 55 -66z m4070 -284 c0
-304 -2 -350 -15 -350 -8 0 -15 6 -15 14 0 7 -7 19 -15 26 -8 7 -15 20 -15 30
0 10 -7 23 -15 30 -8 7 -15 20 -15 30 0 10 -7 23 -15 30 -8 7 -15 20 -15 30 0
10 -7 23 -15 30 -8 7 -15 19 -15 28 0 8 -8 24 -17 35 -16 16 -18 45 -21 203
-2 102 -1 191 2 199 4 12 25 15 96 15 l90 0 0 -350z m310 20 l5 -325 80 -3
c43 -2 85 -8 92 -14 18 -15 17 -122 -1 -137 -9 -8 -57 -11 -146 -9 l-133 3
-59 72 -60 72 1 262 2 262 61 74 61 74 46 -3 46 -3 5 -325z m355 253 c49 -68
56 -82 53 -117 l-3 -41 -99 -3 c-105 -3 -116 1 -116 45 0 30 -9 33 -85 36 -45
2 -69 7 -75 17 -11 17 -13 123 -3 133 3 4 66 7 139 7 l133 0 56 -77z m-3665
-10 c0 -16 7 -41 15 -57 8 -15 15 -38 15 -50 0 -11 7 -34 15 -50 8 -15 15 -39
15 -51 0 -13 4 -35 9 -48 7 -17 4 -44 -10 -93 -11 -38 -23 -87 -29 -109 -24
-105 -60 -235 -70 -255 -5 -11 -29 -16 -100 -18 -53 -2 -98 2 -103 7 -7 7 -16
7 -29 0 -10 -5 -66 -8 -124 -7 l-107 3 -13 35 c-6 19 -26 73 -43 120 -17 47
-31 86 -31 88 0 1 35 2 77 2 58 0 81 4 95 17 18 16 20 16 37 -3 9 -10 26 -39
36 -64 71 -173 91 -198 107 -134 6 25 16 60 58 199 5 17 16 53 24 80 8 28 22
75 31 105 31 104 43 145 59 204 24 92 66 141 66 79z m2480 -206 l85 -172 3
-166 c3 -136 1 -168 -11 -178 -10 -8 -44 -11 -99 -9 l-83 3 -7 65 c-11 99 2
630 16 630 6 -1 49 -78 96 -173z m-1332 -286 c2 -149 -1 -218 -9 -227 -15 -18
-160 -19 -177 -2 -8 8 -12 54 -12 139 0 138 -1 139 -59 139 -15 0 -32 5 -39
12 -16 16 -16 130 0 146 9 9 52 12 153 10 l140 -3 3 -214z m719 -1 c2 -118 0
-220 -5 -226 -11 -17 -167 -27 -180 -11 -5 6 -12 70 -15 140 -3 71 -7 130 -10
133 -2 2 -24 8 -48 12 l-44 7 -3 69 c-2 38 -1 75 2 83 5 11 35 13 153 11 l148
-3 2 -215z m1848 -10 l0 -225 -86 -3 c-63 -2 -89 1 -97 11 -7 8 -13 66 -14
143 l-3 129 -35 3 c-19 2 -41 8 -47 14 -18 14 -18 144 0 152 6 2 73 4 147 3
l135 -2 0 -225z m-920 -314 c95 -113 114 -152 95 -200 -9 -25 -12 -26 -100
-26 l-90 0 -6 28 c-3 15 -7 33 -10 40 -2 8 -27 12 -78 12 -86 0 -96 8 -96 82
0 88 -1 87 114 91 129 4 147 1 171 -27z m-3457 5 c4 -11 5 -197 2 -413 l-5
-393 -105 0 -105 0 -3 400 c-1 220 0 406 3 412 3 9 34 13 105 13 90 0 101 -2
108 -19z m351 -58 l71 -78 0 -133 0 -133 -46 -53 -45 -53 -79 -6 c-82 -5 -104
-12 -95 -28 8 -12 107 -12 140 1 27 10 25 14 82 -120 9 -19 21 -46 28 -60 8
-14 15 -39 17 -55 l3 -30 -106 -3 c-77 -2 -109 1 -116 10 -14 18 -83 211 -83
232 0 14 -5 17 -25 12 -48 -12 -65 8 -65 75 0 55 2 60 26 69 14 6 47 10 73 10
29 0 53 6 60 14 8 9 11 51 9 122 l-3 109 -70 3 c-38 2 -75 8 -82 14 -13 11
-18 113 -7 142 5 13 26 16 124 16 l118 0 71 -77z m489 -15 c2 -66 0 -88 -10
-89 -7 -1 -20 -2 -28 -3 -13 -1 -15 -34 -15 -236 l0 -234 25 -6 c24 -6 25 -9
25 -85 l0 -80 -164 -3 c-112 -2 -168 1 -177 9 -9 7 -14 31 -14 63 0 75 8 94
41 101 l29 7 0 224 0 225 -35 15 -35 14 0 73 c0 44 5 78 12 85 9 9 58 12 178
10 l165 -3 3 -87z m302 -243 l5 -330 85 -5 85 -5 3 -77 3 -78 -135 0 -134 0
-55 63 c-30 34 -59 72 -66 84 -7 14 -11 104 -11 271 l0 249 56 69 c72 87 82
94 124 91 l35 -2 5 -330z m301 322 c32 -25 119 -162 119 -188 0 -43 -19 -50
-121 -47 l-94 3 -10 32 c-15 44 -19 47 -69 44 -23 -1 -55 3 -69 8 -25 10 -27
14 -27 74 0 36 5 68 12 75 17 17 237 16 259 -1z m414 -402 l0 -410 -105 0
-105 0 -3 400 c-1 220 0 406 3 413 3 9 31 12 107 10 l103 -3 0 -410z m420 393
c3 -13 4 -198 3 -413 l-3 -390 -110 0 -110 0 -3 154 c-1 90 -7 160 -13 167 -6
8 -39 14 -77 16 l-67 3 -3 54 c-5 95 -2 101 72 101 89 0 90 2 83 162 -3 78 -2
139 4 150 8 16 24 18 114 18 100 0 105 -1 110 -22z m613 10 c7 -7 12 -43 12
-89 0 -100 -8 -109 -101 -109 l-69 0 -2 -242 c-2 -134 -3 -269 -3 -300 0 -31
-5 -62 -11 -68 -7 -7 -49 -10 -115 -8 l-104 3 -3 308 -2 307 -66 0 c-100 0
-104 4 -104 109 0 48 3 91 7 94 3 4 128 7 278 7 197 0 274 -3 283 -12z m260
-135 c1 -79 6 -143 10 -143 290 -5 279 -4 302 -30 11 -14 41 -53 65 -88 l45
-62 0 -98 -1 -97 -62 -80 c-59 -75 -65 -80 -105 -83 -23 -2 -42 0 -42 5 0 64
-12 279 -16 285 -3 4 -68 8 -144 8 l-139 0 -63 83 -63 82 0 95 0 95 49 65 c81
107 86 111 126 108 l35 -3 3 -142z m-1605 -236 c16 -11 17 -34 15 -227 l-3
-215 -95 0 -95 0 -3 142 c-3 159 2 148 -77 155 -29 3 -30 4 -33 64 -4 90 2 94
152 94 82 0 128 -4 139 -13z m1546 -203 c51 -6 61 -10 61 -26 0 -46 17 -58 83
-58 34 0 68 -4 75 -9 9 -5 12 -28 10 -77 l-3 -69 -130 -3 c-71 -1 -134 1 -140
5 -12 10 -75 101 -75 110 0 4 -7 14 -16 24 -21 23 -23 87 -4 100 18 10 55 11
139 3z"/>
<path d="M6706 7278 c-21 -18 -84 -63 -140 -101 -56 -37 -139 -94 -184 -125
-46 -31 -91 -61 -101 -67 -26 -16 -218 -143 -298 -196 -39 -27 -74 -49 -78
-49 -10 0 -173 -108 -176 -117 -4 -8 -33 -28 -204 -139 -33 -21 -69 -47 -79
-56 -19 -18 -19 -18 4 -43 12 -13 38 -30 58 -36 41 -14 158 -14 175 -1 7 5 27
13 46 17 18 4 55 18 81 31 26 13 50 24 53 24 2 0 31 16 63 36 65 39 61 39 234
8 273 -49 320 -53 595 -53 266 0 408 11 595 49 30 6 77 15 103 20 77 16 106
12 161 -20 95 -57 115 -67 198 -97 85 -30 189 -34 217 -9 10 9 25 16 34 16 28
0 40 36 21 65 -9 14 -21 25 -27 25 -6 0 -67 38 -136 85 -271 185 -367 248
-420 280 -9 5 -80 52 -159 105 -79 52 -151 100 -160 105 -8 6 -48 32 -86 58
-39 27 -100 69 -136 93 -36 24 -91 62 -123 84 -32 22 -66 40 -75 40 -9 -1 -35
-15 -56 -32z"/>
</g>
</svg>
