<?xml version="1.0" standalone="no"?>
<!DOCTYPE svg PUBLIC "-//W3C//DTD SVG 20010904//EN"
 "http://www.w3.org/TR/2001/REC-SVG-20010904/DTD/svg10.dtd">
<svg version="1.0" xmlns="http://www.w3.org/2000/svg"
 width="300.000000pt" height="157.000000pt" viewBox="0 0 300.000000 157.000000"
 preserveAspectRatio="xMidYMid meet">
<metadata>
Created by potrace 1.10, written by Peter Selinger 2001-2011
</metadata>
<g transform="translate(0.000000,157.000000) scale(0.100000,-0.100000)"
fill="#ffffff" stroke="none">
<path d="M1426 1325 c-43 -30 -121 -80 -172 -111 l-94 -57 0 -74 0 -75 38 23
c20 12 98 62 173 111 l137 89 103 -69 c139 -93 239 -153 239 -144 0 4 -23 20
-50 35 -28 16 -105 64 -171 108 l-121 80 -121 -79 c-67 -44 -143 -91 -169
-107 l-48 -27 0 61 c0 61 1 62 38 84 20 12 96 61 169 109 l132 87 123 -83
c130 -87 218 -141 218 -133 0 3 -35 26 -77 53 -43 26 -120 76 -170 111 -51 34
-94 63 -96 63 -1 0 -38 -25 -81 -55z"/>
<path d="M1843 1090 c0 -25 2 -35 4 -22 2 12 2 32 0 45 -2 12 -4 2 -4 -23z"/>
<path d="M1422 1050 c-46 -32 -123 -83 -172 -112 l-89 -53 1 -65 1 -65 6 62 6
62 120 76 c66 42 140 91 165 109 l45 33 80 -54 c109 -73 253 -163 262 -163 5
0 -8 10 -27 22 -31 19 -221 143 -290 190 -25 16 -26 15 -108 -42z"/>
<path d="M1410 904 c-52 -36 -130 -87 -173 -114 l-79 -49 44 -27 c173 -111
369 -121 556 -29 50 25 92 49 92 53 0 12 -119 81 -125 72 -9 -15 -142 -40
-215 -40 -69 0 -205 24 -214 38 -2 4 45 39 104 79 l108 72 68 -48 c75 -51 155
-100 139 -84 -10 10 -206 144 -209 142 0 0 -44 -29 -96 -65z m75 -139 c88 -3
181 0 207 5 41 8 53 6 83 -11 19 -12 35 -25 35 -29 0 -5 -33 -25 -72 -44 -120
-59 -248 -68 -388 -30 -66 18 -141 60 -137 76 4 20 60 47 87 41 14 -2 97 -6
185 -8z"/>
<path d="M866 532 c-4 -3 -6 -45 -6 -93 l0 -87 33 -20 c24 -15 46 -19 85 -17
l52 3 0 -80 c0 -74 2 -83 26 -104 28 -27 54 -31 54 -9 0 18 1 18 37 4 44 -18
133 -17 143 1 7 13 12 13 42 -1 22 -10 58 -14 107 -13 68 2 77 5 94 28 23 32
20 82 -5 78 -12 -2 -18 4 -18 18 0 14 7 20 21 20 18 0 21 5 17 35 -4 31 -1 35
19 35 22 0 23 -3 23 -90 l0 -90 -27 -1 c-16 0 -21 -3 -13 -6 8 -3 21 -13 28
-21 10 -13 17 -14 30 -6 13 9 16 23 14 69 -2 38 0 55 7 50 6 -3 11 -26 11 -49
0 -33 4 -45 18 -50 9 -3 25 -11 35 -18 27 -19 39 6 33 70 -5 55 8 69 34 37 10
-12 10 -15 -4 -15 -19 0 -21 -28 -3 -51 24 -30 62 -47 101 -44 52 4 69 27 61
80 -4 22 -9 56 -11 75 -3 18 -7 36 -9 39 -3 2 7 10 21 17 21 11 30 11 52 0 33
-16 122 -20 122 -5 0 5 4 8 8 5 10 -6 0 74 -12 92 -4 6 -2 20 4 31 8 17 5 26
-21 56 -28 31 -37 35 -73 34 -24 -1 -50 -10 -62 -21 -21 -19 -21 -19 -27 1 -3
14 -13 21 -29 20 -23 -2 -23 -2 0 -6 21 -4 22 -9 22 -81 l0 -77 -20 44 c-11
24 -20 56 -20 72 0 21 -4 27 -15 23 -8 -4 -17 1 -21 10 -9 23 -64 22 -64 -1
-1 -17 -1 -17 -11 0 -14 23 -74 23 -88 0 -10 -17 -12 -17 -25 0 -19 24 -100
19 -119 -7 -14 -18 -15 -18 -36 3 -17 17 -31 21 -66 18 -51 -3 -74 -25 -75
-72 l-2 -30 -11 30 c-17 43 -48 75 -73 75 -26 0 -35 -18 -23 -42 13 -25 13
-58 0 -105 -9 -32 -17 -43 -31 -43 -25 0 -25 3 0 75 21 60 26 90 11 67 -6 -10
-15 -6 -40 17 -27 25 -39 29 -86 29 -40 0 -58 -5 -64 -17 -9 -14 -11 -14 -28
1 -17 15 -114 23 -127 10z m46 -64 c5 -94 0 -118 -23 -118 -17 0 -19 8 -19 90
0 82 2 90 19 90 17 0 20 -9 23 -62z m81 45 c18 -21 21 -106 5 -140 -13 -27
-68 -33 -68 -8 0 8 7 15 15 15 9 0 15 9 15 25 0 18 -4 23 -15 19 -9 -4 -15 0
-15 10 0 9 7 16 15 16 9 0 15 9 15 25 0 16 -6 25 -15 25 -8 0 -15 7 -15 15 0
21 43 19 63 -2z m77 -42 c0 -32 3 -73 6 -90 6 -28 4 -31 -20 -31 l-26 0 0 90
c0 83 1 90 20 90 18 0 20 -7 20 -59z m82 42 c18 -16 24 -59 10 -79 -4 -6 -20
-16 -37 -23 -29 -11 -29 -11 -3 -8 20 3 29 -2 37 -20 15 -32 14 -33 -11 -33
-15 0 -29 11 -40 31 -22 38 -23 59 -3 59 10 0 15 10 15 30 0 20 -5 30 -15 30
-8 0 -15 7 -15 15 0 20 39 19 62 -2z m156 -73 l31 -90 -25 0 c-13 0 -24 5 -24
10 0 6 -11 10 -25 10 -16 0 -25 6 -25 15 0 8 7 15 15 15 19 0 19 5 0 66 -19
62 -19 64 4 64 15 0 25 -19 49 -90z m107 -60 c16 0 25 -6 25 -15 0 -24 -67
-20 -80 4 -17 32 -12 122 8 144 16 19 17 16 20 -57 3 -73 4 -76 27 -76z m57
133 c25 -22 23 -33 -7 -33 -14 0 -25 5 -25 10 0 6 -7 10 -15 10 -8 0 -15 7
-15 15 0 20 39 19 62 -2z m103 -133 c16 0 25 -6 25 -15 0 -24 -67 -20 -80 4
-17 32 -12 122 8 144 16 19 17 16 20 -57 3 -73 4 -76 27 -76z m57 133 c25 -22
23 -33 -7 -33 -14 0 -25 5 -25 10 0 6 -7 10 -15 10 -8 0 -15 7 -15 15 0 20 39
19 62 -2z m103 -73 l0 -90 -30 0 -30 0 0 90 0 90 30 0 30 0 0 -90z m120 0 l45
-90 -25 0 c-22 0 -30 11 -65 86 -22 48 -40 88 -40 90 0 2 9 4 20 4 15 0 31
-22 65 -90z m115 15 c0 -68 2 -75 20 -75 11 0 20 -7 20 -15 0 -21 -48 -20 -72
2 -34 31 -16 163 23 163 5 0 9 -34 9 -75z m80 56 c14 -27 13 -31 -10 -31 -11
0 -20 5 -20 10 0 6 -9 10 -20 10 -11 0 -20 7 -20 15 0 23 57 20 70 -4z m-250
-118 c0 -36 -3 -43 -20 -43 -18 0 -20 7 -20 78 l1 77 19 -35 c11 -19 19 -54
20 -77z m-310 7 c0 -43 -3 -50 -19 -50 -15 0 -21 8 -23 33 -2 19 -8 31 -15 30
-7 -2 -13 6 -13 17 0 16 7 20 35 20 l35 0 0 -50z m160 0 c0 -43 -3 -50 -19
-50 -15 0 -21 8 -23 33 -2 19 -8 31 -15 30 -7 -2 -13 6 -13 17 0 16 7 20 35
20 l35 0 0 -50z m410 0 c0 -43 -3 -50 -20 -50 -16 0 -20 7 -20 36 0 21 -4 33
-10 29 -5 -3 -10 3 -10 14 0 17 6 21 30 21 29 0 30 -1 30 -50z m-529 -103 c-8
-8 -11 -3 -11 19 1 25 2 27 11 11 8 -14 8 -22 0 -30z m-451 -26 c0 -32 3 -73
6 -90 6 -28 4 -31 -20 -31 l-26 0 0 90 c0 83 1 90 20 90 18 0 20 -7 20 -59z
m82 42 c29 -26 22 -93 -11 -93 -9 0 -23 -5 -31 -11 -12 -8 -9 -10 12 -6 20 3
29 -2 37 -20 15 -32 14 -33 -11 -33 -15 0 -29 11 -40 31 -22 38 -23 59 -3 59
10 0 15 10 15 30 0 20 -5 30 -15 30 -8 0 -15 7 -15 15 0 20 39 19 62 -2z m103
-73 l0 -90 -35 0 c-29 0 -36 4 -37 20 -1 11 2 20 8 20 12 0 12 82 -1 114 -9
25 -8 26 28 26 l37 0 0 -90z m75 15 c0 -68 2 -75 20 -75 11 0 20 -7 20 -15 0
-21 -48 -20 -72 2 -36 32 -17 163 24 163 4 0 8 -34 8 -75z m80 56 c14 -28 13
-31 -15 -31 -14 0 -25 5 -25 10 0 6 -7 10 -15 10 -8 0 -15 7 -15 15 0 23 57
20 70 -4z m80 -71 c0 -89 0 -90 -25 -90 -25 0 -25 1 -25 90 0 89 0 90 25 90
25 0 25 -1 25 -90z m230 70 c0 -18 -7 -20 -60 -20 -53 0 -60 2 -60 20 0 18 7
20 60 20 53 0 60 -2 60 -20z m60 -13 c0 -32 2 -33 31 -29 54 8 89 -59 52 -100
-24 -27 -33 -22 -33 17 0 33 -2 35 -33 35 -18 0 -38 5 -45 12 -24 24 -9 98 20
98 4 0 8 -15 8 -33z m78 21 c18 -18 14 -38 -8 -38 -11 0 -20 5 -20 10 0 6 -9
10 -20 10 -11 0 -20 7 -20 15 0 18 50 21 68 3z m-173 -103 c0 -60 -2 -65 -22
-65 -19 0 -22 6 -25 65 -3 64 -2 65 22 65 24 0 25 -2 25 -65z m-265 -15 c0
-43 -3 -50 -20 -50 -16 0 -20 7 -20 36 0 21 -4 33 -10 29 -5 -3 -10 3 -10 14
0 17 6 21 30 21 29 0 30 -1 30 -50z m360 -10 c0 -5 9 -10 20 -10 11 0 20 -7
20 -15 0 -18 -50 -21 -68 -3 -18 18 -14 38 8 38 11 0 20 -4 20 -10z"/>
</g>
</svg>
