<?xml version="1.0" standalone="no"?>
<!DOCTYPE svg PUBLIC "-//W3C//DTD SVG 20010904//EN"
 "http://www.w3.org/TR/2001/REC-SVG-20010904/DTD/svg10.dtd">
<svg version="1.0" xmlns="http://www.w3.org/2000/svg"
 width="300.000000pt" height="120.000000pt" viewBox="0 0 300.000000 120.000000"
 preserveAspectRatio="xMidYMid meet">
<metadata>
Created by potrace 1.10, written by Peter Selinger 2001-2011
</metadata>
<g transform="translate(0.000000,120.000000) scale(0.100000,-0.100000)"
fill="#000000" stroke="none">
<path d="M1124 1134 c-8 -20 -13 -38 -11 -40 2 -2 11 14 20 36 19 50 12 53 -9
4z"/>
<path d="M1242 1158 c-7 -7 -12 -16 -12 -22 0 -5 -8 -19 -17 -30 -17 -20 -17
-20 1 -6 10 8 33 15 50 15 32 1 33 1 35 -48 2 -37 -1 -47 -11 -41 -15 9 -63
15 -54 7 3 -4 16 -7 29 -8 29 -2 28 -19 -1 -23 -30 -5 -62 24 -62 55 0 13 -4
22 -9 19 -4 -3 -14 13 -20 35 -7 23 -14 39 -17 36 -7 -7 37 -121 50 -129 6 -4
4 -10 -8 -14 -11 -4 -22 -1 -28 7 -8 12 -9 11 -5 -1 5 -19 47 -26 47 -9 0 10
3 10 12 1 7 -7 21 -12 33 -12 12 0 26 5 33 12 9 9 12 9 12 0 0 -7 9 -12 20
-12 18 0 20 7 20 64 0 63 1 65 28 69 25 4 25 4 -5 6 l-33 1 0 -65 c0 -37 -4
-65 -10 -65 -6 0 -10 28 -10 65 l0 65 -36 0 c-24 0 -34 4 -32 13 3 8 35 14 89
18 l84 5 -80 2 c-52 1 -85 -2 -93 -10z"/>
<path d="M1464 1134 c-8 -20 -13 -38 -11 -41 3 -2 10 12 17 31 l12 36 72 0
c43 0 78 -5 86 -12 12 -11 12 -10 1 5 -11 13 -29 17 -88 17 l-74 0 -15 -36z"/>
<path d="M1410 1145 c0 -5 5 -17 10 -25 5 -8 10 -10 10 -5 0 6 -5 17 -10 25
-5 8 -10 11 -10 5z"/>
<path d="M1489 1104 c-5 -15 -7 -29 -5 -32 3 -2 8 7 11 20 4 14 13 25 21 25
10 0 14 -15 14 -58 0 -47 -3 -58 -17 -61 -10 -3 17 -5 60 -5 83 0 83 -1 78 63
-4 51 77 76 110 33 l19 -24 0 23 0 23 30 -21 30 -21 0 20 c0 12 5 21 10 21 6
0 10 -23 10 -52 l0 -51 -25 23 -25 23 0 -26 c0 -34 -27 -36 -32 -3 l-3 24 -20
-26 c-12 -18 -14 -23 -3 -14 13 10 17 10 22 -3 8 -22 37 -18 43 6 l6 20 22
-21 22 -21 2 66 c2 60 0 65 -18 65 -12 0 -21 -7 -21 -15 0 -13 -4 -13 -27 2
-18 12 -28 14 -30 6 -3 -8 -11 -8 -30 2 -27 14 -70 5 -85 -18 -5 -8 -8 -3 -8
11 0 21 -4 22 -75 22 -72 0 -76 -1 -86 -26z m115 -6 c11 -43 7 -51 -15 -27
l-20 24 17 -32 c23 -41 38 -32 30 18 -5 31 -3 39 9 39 12 0 15 -13 15 -60 0
-55 -12 -79 -23 -47 -4 10 -7 10 -18 0 -16 -15 -49 -17 -49 -3 0 6 7 10 15 10
8 0 15 3 15 8 -1 11 -30 47 -30 36 0 -6 5 -15 12 -22 9 -9 8 -12 -5 -12 -13 0
-16 9 -14 43 2 39 5 43 28 45 20 2 28 -3 33 -20z"/>
<path d="M1380 1056 c0 -35 -5 -56 -12 -59 -8 -2 -7 -3 2 -3 11 1 17 17 20 54
3 30 2 56 -2 58 -4 3 -8 -20 -8 -50z"/>
<path d="M1430 1091 c0 -6 4 -13 10 -16 6 -3 7 1 4 9 -7 18 -14 21 -14 7z"/>
<path d="M1232 1078 c-7 -7 -12 -16 -12 -22 0 -5 6 -3 13 6 6 9 23 19 37 21
l25 4 -25 2 c-15 0 -31 -4 -38 -11z"/>
<path d="M1687 1083 c-12 -11 -8 -40 7 -52 15 -12 46 -5 46 11 0 6 -6 5 -15
-2 -18 -15 -35 -5 -35 22 0 16 5 19 25 16 13 -3 22 -1 19 3 -6 11 -38 12 -47
2z"/>
<path d="M1092 1041 c-16 -51 -16 -51 11 -50 18 1 18 2 4 6 -12 3 -16 10 -13
20 11 27 18 63 14 63 -3 0 -10 -17 -16 -39z"/>
<path d="M1135 1060 c-3 -5 -1 -10 4 -10 6 0 11 5 11 10 0 6 -2 10 -4 10 -3 0
-8 -4 -11 -10z"/>
<path d="M1461 1029 c-6 -18 -9 -34 -7 -36 2 -2 9 10 15 28 6 18 9 34 7 36 -2
2 -9 -10 -15 -28z"/>
<path d="M1410 1046 c0 -12 29 -76 34 -76 3 0 -2 17 -11 38 -16 38 -23 50 -23
38z"/>
<path d="M1887 1033 c-4 -3 -7 -15 -7 -26 0 -17 2 -18 17 -6 11 9 14 10 9 2
-5 -9 -2 -11 8 -7 20 8 20 12 2 30 -16 16 -20 17 -29 7z"/>
<path d="M1674 1006 c11 -9 29 -16 40 -15 17 1 16 2 -6 9 -14 4 -32 11 -40 15
-7 3 -4 -1 6 -9z"/>
<path d="M725 845 c-23 -22 -25 -31 -25 -125 0 -94 2 -103 25 -125 19 -20 34
-25 73 -25 64 0 89 21 97 80 l7 45 -41 0 c-41 0 -41 0 -41 -38 0 -31 -3 -38
-17 -35 -16 3 -18 16 -18 98 0 82 2 95 18 98 14 3 17 -4 17 -40 l0 -44 40 4
c39 4 40 5 40 44 0 58 -34 88 -100 88 -41 0 -56 -5 -75 -25z m120 -7 c14 -6
25 -16 25 -22 0 -6 3 -21 6 -33 5 -19 2 -23 -15 -23 -16 0 -21 6 -21 27 0 14
-7 35 -17 45 -19 21 -14 23 22 6z m-83 -97 c-3 -82 -1 -104 14 -126 l18 -28
-24 8 c-40 12 -44 21 -46 112 -2 101 2 120 25 126 9 3 16 5 16 6 0 0 -2 -44
-3 -98z m118 -96 c0 -14 -8 -29 -21 -35 -26 -14 -28 -12 -22 28 7 40 43 47 43
7z"/>
<path d="M921 763 c-7 -60 -14 -123 -17 -140 -7 -46 -8 -45 30 -48 41 -2 42
-1 52 133 8 113 26 124 20 12 -3 -44 -1 -80 4 -80 4 0 11 -15 14 -33 6 -31 8
-33 41 -29 42 5 41 -1 15 157 -11 66 -20 123 -20 128 0 4 -28 7 -63 7 l-63 0
-13 -107z m132 -15 c10 -51 20 -105 23 -120 5 -21 2 -28 -8 -28 -23 0 -40 49
-43 123 -4 120 -40 117 -57 -4 -15 -111 -17 -119 -33 -119 -19 0 -19 11 1 124
21 122 18 116 62 116 l38 0 17 -92z"/>
<path d="M1110 725 l0 -145 68 0 69 0 -5 30 c-3 23 -10 30 -26 30 -20 0 -21 3
-18 115 l3 115 -45 0 -46 0 0 -145z m60 15 c0 -89 2 -101 20 -112 30 -19 24
-28 -20 -28 l-40 0 0 113 c0 115 3 127 27 127 10 0 13 -23 13 -100z"/>
<path d="M1258 863 c-2 -5 -2 -70 0 -145 l3 -138 65 0 64 0 0 30 c0 25 -4 30
-25 30 l-25 0 0 115 0 115 -39 0 c-22 0 -41 -3 -43 -7z m62 -128 c5 -100 13
-131 31 -120 5 4 9 1 9 -4 0 -6 -18 -11 -40 -11 l-40 0 0 121 c0 109 2 120 18
117 14 -3 18 -18 22 -103z"/>
<path d="M1471 726 l-1 -146 84 0 c114 0 116 2 116 139 0 137 -6 144 -120 149
l-79 4 0 -146z m73 118 c13 -5 14 -9 5 -21 -14 -16 -19 -179 -7 -205 7 -15 4
-18 -17 -18 -28 0 -28 2 -25 160 2 93 5 99 44 84z m94 -21 c5 -10 9 -60 8
-112 -1 -89 -2 -94 -25 -103 -28 -10 -40 -3 -23 14 16 16 16 190 0 206 -9 9
-7 12 10 12 12 0 25 -8 30 -17z m-50 -101 c2 -76 0 -92 -12 -92 -12 0 -15 20
-18 95 -3 81 -1 95 12 93 12 -3 16 -23 18 -96z"/>
<path d="M1717 862 l-38 -3 2 -112 c2 -122 9 -149 46 -166 53 -24 135 -2 148
39 4 12 5 70 3 131 l-3 109 -32 0 c-18 0 -36 0 -39 0 -3 0 -7 -53 -7 -117 -2
-83 -6 -117 -14 -120 -10 -4 -13 24 -13 116 0 66 -3 121 -7 123 -5 2 -25 2
-46 0z m23 -123 c0 -55 5 -109 10 -120 12 -22 7 -24 -21 -9 -17 10 -19 22 -19
120 0 91 3 110 15 110 12 0 15 -18 15 -101z m116 -5 c-1 -91 -4 -107 -20 -119
-21 -16 -44 -9 -27 8 7 7 11 53 11 114 0 94 2 103 19 103 16 0 18 -9 17 -106z"/>
<path d="M1890 835 c0 -32 2 -35 23 -30 22 6 22 6 19 -110 l-3 -115 45 0 46 0
0 116 c0 113 1 115 22 112 29 -4 56 -83 57 -165 l1 -63 45 0 45 0 0 58 c0 36
10 87 25 132 33 96 32 102 -7 98 -30 -3 -34 -8 -48 -55 l-16 -52 -14 52 -15
52 -113 3 -112 3 0 -36z m144 -5 c-32 -13 -38 -28 -40 -105 -2 -118 -3 -125
-19 -125 -16 0 -17 4 -20 115 -2 39 -3 77 -4 86 -1 9 -11 21 -23 27 -19 8 -9
10 52 10 50 0 68 -3 54 -8z m77 -32 c22 -59 42 -60 65 -4 11 25 22 46 27 46 9
0 10 5 -18 -80 -13 -41 -25 -94 -25 -117 0 -31 -4 -43 -15 -43 -11 0 -15 12
-15 43 -1 46 -27 130 -53 171 -17 25 -17 26 1 26 12 0 23 -14 33 -42z"/>
<path d="M1367 793 c-12 -12 -8 -91 6 -96 27 -9 37 6 37 54 0 41 -3 49 -18 49
-10 0 -22 -3 -25 -7z m20 -65 c-2 -13 -4 -3 -4 22 0 25 2 35 4 23 2 -13 2 -33
0 -45z"/>
<path d="M1420 750 c0 -36 4 -50 14 -50 16 0 29 52 14 61 -7 4 -6 9 1 13 18
11 13 26 -9 26 -17 0 -20 -7 -20 -50z"/>
<path d="M2209 604 c-9 -11 -9 -18 -1 -26 14 -14 42 -3 42 16 0 20 -27 27 -41
10z"/>
<path d="M863 520 c-32 -13 -43 -41 -43 -110 0 -51 4 -65 25 -85 23 -24 31
-25 132 -25 67 0 118 5 133 13 31 15 46 75 36 141 -10 64 -36 76 -163 75 -54
0 -108 -4 -120 -9z m231 -11 c29 -14 36 -34 36 -111 0 -82 -16 -91 -159 -86
-130 4 -140 11 -141 95 0 67 13 100 42 106 49 9 198 6 222 -4z"/>
<path d="M896 464 c-10 -9 -15 -30 -14 -52 l1 -37 4 35 c7 54 17 60 99 60 64
0 75 -3 85 -21 6 -12 8 -37 5 -58 -5 -26 -4 -32 3 -21 16 22 13 62 -5 88 -13
19 -24 22 -89 22 -54 0 -78 -4 -89 -16z"/>
<path d="M899 357 c4 -4 43 -7 87 -5 l79 3 -87 5 c-48 3 -83 1 -79 -3z"/>
<path d="M1197 523 c-4 -3 -7 -55 -7 -115 l0 -108 119 0 c117 0 168 9 183 33
10 16 10 149 0 165 -5 7 -24 17 -43 22 -38 11 -242 14 -252 3z m244 -15 c45
-9 49 -16 49 -92 0 -56 -4 -77 -17 -87 -11 -10 -55 -15 -145 -18 l-128 -3 0
107 0 106 108 -4 c59 -2 119 -6 133 -9z"/>
<path d="M1250 415 l0 -65 83 2 82 2 -77 3 -78 4 0 54 0 55 78 0 c47 0 83 -5
90 -12 15 -15 16 -74 2 -83 -5 -3 -10 -12 -10 -18 1 -28 30 30 30 59 0 53 -20
64 -116 64 l-84 0 0 -65z"/>
<path d="M1557 523 c-4 -3 -7 -55 -7 -115 l0 -109 133 3 132 3 0 25 c0 25 -1
25 -97 28 -78 2 -98 6 -98 17 0 12 16 15 80 15 68 0 81 3 90 19 5 11 10 22 10
25 0 3 -40 6 -90 6 -73 0 -90 3 -90 15 0 12 17 15 95 15 l95 0 0 30 0 30 -123
0 c-68 0 -127 -3 -130 -7z m241 -30 c3 -10 -20 -13 -92 -13 -96 0 -96 0 -96
-25 0 -25 1 -25 91 -25 79 0 90 -2 79 -15 -8 -10 -36 -15 -88 -17 -71 -3 -77
-5 -80 -25 -4 -26 -5 -25 116 -23 67 1 72 0 72 -19 0 -20 -5 -21 -120 -21
l-120 0 0 100 0 101 117 -3 c82 -2 118 -7 121 -15z"/>
<path d="M1874 517 c-2 -7 -3 -58 -2 -113 l3 -99 33 -3 c30 -3 32 -1 32 27 l0
30 68 4 67 3 -70 0 c-69 -1 -70 -1 -73 -28 -3 -22 -9 -28 -28 -28 -24 0 -24 0
-24 105 l0 106 108 -2 c121 -2 148 -9 162 -41 10 -23 10 -23 7 2 -3 39 -39 50
-165 50 -84 0 -114 -3 -118 -13z"/>
<path d="M2210 414 l0 -115 33 3 32 3 5 73 5 74 65 -76 65 -75 53 -1 53 0 -3
113 -3 112 -30 0 -30 0 -5 -74 -5 -73 -68 76 c-68 75 -69 76 -118 76 l-49 0 0
-116z m80 93 c10 3 28 -8 46 -28 45 -50 107 -109 116 -109 4 0 8 33 10 73 3
66 5 72 26 75 22 3 22 2 22 -102 l0 -106 -44 0 c-41 0 -48 4 -88 51 -65 77
-86 99 -98 99 -6 0 -10 -30 -10 -76 0 -72 -1 -75 -22 -72 -21 3 -22 8 -24 98
-2 96 5 117 34 101 8 -5 22 -6 32 -4z"/>
<path d="M420 410 l0 -110 30 0 c30 0 30 0 29 58 -1 54 -1 55 -11 23 -5 -19
-7 -43 -5 -53 4 -12 0 -18 -13 -18 -16 0 -18 10 -19 100 l-1 100 28 0 c22 0
36 -10 62 -45 19 -25 44 -52 57 -60 22 -15 25 -13 80 45 43 45 65 60 86 60
l27 0 0 -100 c0 -100 0 -100 -25 -100 -24 0 -25 3 -25 54 0 30 -4 57 -9 60 -5
3 -32 -20 -61 -51 l-53 -56 -41 44 c-70 74 -84 78 -21 6 l59 -69 58 60 58 60
0 -59 0 -59 35 0 35 0 0 110 0 110 -32 0 c-26 0 -44 -12 -93 -60 l-61 -61 -53
61 c-45 52 -57 60 -87 60 l-34 0 0 -110z"/>
<path d="M1934 466 c-3 -8 -4 -25 -2 -38 3 -21 9 -23 69 -26 52 -2 70 1 89 16
19 16 21 22 11 40 -10 20 -20 22 -87 22 -55 0 -76 -4 -80 -14z m159 -9 c10
-26 -9 -35 -81 -39 l-72 -3 0 28 0 27 74 0 c53 0 75 -4 79 -13z"/>
<path d="M2145 425 c0 -13 3 -21 8 -18 4 2 7 10 7 18 0 8 -3 16 -7 18 -5 3 -8
-5 -8 -18z"/>
<path d="M2133 382 c10 -10 17 -31 17 -45 0 -22 -5 -27 -24 -27 -18 0 -26 7
-29 23 -4 19 -4 18 -6 -5 -1 -26 2 -28 34 -28 33 0 35 2 35 34 0 19 -7 42 -16
50 -22 22 -31 20 -11 -2z"/>
<path d="M420 138 l0 -108 33 0 c26 0 43 10 85 53 29 29 52 57 52 62 0 6 -22
-13 -49 -42 -26 -28 -60 -55 -74 -59 l-27 -6 0 91 c0 54 4 91 10 91 6 0 10
-17 10 -39 0 -23 6 -44 16 -52 14 -11 20 -9 43 17 14 16 38 40 53 53 l26 23
52 -51 c28 -28 56 -51 61 -51 5 0 9 25 9 56 0 47 3 55 16 50 9 -3 20 -6 25 -6
5 0 9 -38 9 -85 0 -68 -3 -85 -15 -86 -8 -1 -24 -2 -34 -2 -18 -1 -61 36 -61
53 0 3 -15 17 -32 30 l-33 23 25 -29 c74 -87 83 -94 122 -94 l38 0 0 105 0
105 -35 0 -35 0 0 -57 0 -57 -58 58 -59 57 -56 -58 -57 -58 0 56 c0 55 -1 57
-30 61 l-30 5 0 -109z"/>
<path d="M850 138 c-30 -57 -56 -105 -58 -108 -1 -3 16 -4 39 -2 22 3 43 10
46 18 8 21 149 20 157 -1 3 -10 19 -15 42 -15 42 0 44 -7 -24 115 l-50 90 -48
3 -49 3 -55 -103z m142 80 c8 -7 34 -47 57 -89 36 -66 39 -78 25 -83 -9 -4
-24 0 -34 9 -21 19 -152 21 -172 2 -15 -14 -48 -19 -48 -7 0 13 83 164 94 172
17 12 61 9 78 -4z"/>
<path d="M932 180 c-7 -11 -9 -20 -4 -20 4 0 13 9 20 20 7 11 9 20 4 20 -4 0
-13 -9 -20 -20z"/>
<path d="M975 153 c8 -18 18 -33 20 -33 10 0 4 16 -16 40 l-20 25 16 -32z"/>
<path d="M910 131 c-15 -30 -14 -31 43 -29 l52 2 -48 3 c-43 4 -46 6 -37 24 6
10 8 19 6 19 -3 0 -10 -9 -16 -19z"/>
<path d="M1130 135 l0 -105 35 0 c28 0 35 4 35 20 0 24 -6 25 -27 4 -26 -25
-34 -2 -31 87 l3 84 110 1 c61 0 116 -4 123 -9 17 -13 15 -65 -3 -84 -14 -14
-14 -17 0 -32 8 -10 15 -27 15 -39 0 -31 -42 -30 -55 0 -9 21 -17 23 -80 24
l-70 1 70 -6 c63 -5 70 -8 73 -28 3 -19 10 -23 38 -23 31 0 34 3 34 29 0 16
-7 34 -15 41 -13 11 -13 14 0 27 17 17 20 66 5 94 -10 17 -22 19 -135 19
l-125 0 0 -105z"/>
<path d="M1430 135 l0 -105 35 0 c32 0 35 2 35 30 0 17 -4 30 -10 30 -5 0 -10
-9 -10 -19 0 -10 -6 -21 -14 -24 -18 -7 -22 15 -18 111 l4 73 100 -3 c70 -2
103 -7 106 -15 3 -10 -17 -13 -77 -13 -68 0 -82 -3 -90 -18 -15 -29 6 -42 67
-42 72 0 65 -23 -9 -31 l-54 -6 56 -1 c51 -2 57 0 67 23 l12 25 -65 0 c-58 0
-65 2 -65 20 0 17 8 19 83 22 76 3 82 5 85 26 3 22 2 22 -117 22 l-121 0 0
-105z"/>
<path d="M1678 135 l-56 -105 39 0 c26 0 42 5 45 15 9 22 149 22 158 0 5 -14
76 -23 76 -9 0 3 -25 51 -56 105 l-55 99 -47 0 -47 0 -57 -105z m166 57 c13
-21 35 -59 49 -87 23 -43 25 -50 11 -58 -10 -6 -21 -3 -33 7 -24 22 -153 23
-171 1 -14 -17 -50 -20 -50 -4 0 14 81 162 93 171 5 3 25 6 44 6 28 0 38 -6
57 -36z"/>
<path d="M1769 183 c-14 -16 -39 -67 -39 -78 0 -3 24 -4 53 -3 l52 2 -47 3
-48 4 21 42 21 41 19 -37 c11 -20 21 -37 23 -37 8 0 -6 36 -22 58 -17 22 -19
22 -33 5z"/>
<path d="M1960 135 l0 -105 35 0 c31 0 35 3 35 25 0 26 1 26 73 23 66 -3 72
-5 75 -25 3 -19 10 -23 38 -23 31 0 34 3 34 29 0 16 -7 35 -17 42 -15 13 -15
12 -5 -8 19 -35 15 -53 -12 -53 -18 0 -25 6 -28 22 -3 21 -9 23 -68 26 -74 4
-111 -3 -107 -20 1 -7 -5 -13 -15 -15 -14 -4 -16 7 -15 84 l2 88 113 3 c77 2
118 -1 128 -9 17 -14 18 -70 2 -88 -11 -11 -10 -13 2 -9 19 6 25 69 10 98 -10
19 -20 20 -145 20 l-135 0 0 -105z"/>
<path d="M2280 135 l0 -105 120 0 120 0 0 26 0 25 -85 -3 c-76 -3 -85 -1 -85
15 0 15 10 17 80 17 79 0 80 0 80 25 0 25 -1 25 -80 25 -64 0 -80 3 -80 15 0
12 16 15 85 15 84 0 85 0 85 25 l0 25 -120 0 -120 0 0 -105z m230 80 c0 -12
-16 -15 -85 -15 -84 0 -85 0 -85 -25 0 -25 1 -25 80 -25 64 0 80 -3 80 -15 0
-12 -16 -15 -81 -15 l-80 0 3 -27 3 -28 82 0 c61 0 83 -3 83 -13 0 -10 -24
-12 -102 -10 l-103 3 -3 79 c-2 44 -1 85 2 93 8 20 206 19 206 -2z"/>
<path d="M1190 165 l0 -36 73 3 c71 3 72 3 73 31 1 25 1 25 -3 2 -4 -24 -8
-25 -69 -25 -61 0 -64 1 -64 25 0 23 4 24 63 28 l62 3 -67 2 -68 2 0 -35z"/>
<path d="M2020 180 c-8 -15 -7 -23 8 -38 14 -14 32 -17 81 -16 70 2 85 11 78
45 -4 22 -4 22 -6 -3 -1 -28 -1 -28 -76 -28 -73 0 -75 1 -75 25 0 23 3 24 73
28 l72 3 -72 2 c-63 2 -74 -1 -83 -18z"/>
<path d="M2535 60 c-9 -15 4 -30 26 -30 12 0 19 7 19 20 0 21 -33 29 -45 10z
m35 -8 c0 -5 -7 -9 -15 -9 -8 0 -12 4 -9 9 7 10 24 10 24 0z"/>
</g>
</svg>
